<svg xmlns="http://www.w3.org/2000/svg" viewBox="0 0 400.0 400.0" width="400" height="400" role="img" aria-label="Darice Corey, LLC monogram logo, for light backgrounds"><title>Darice Corey, LLC monogram logo, for light backgrounds</title><circle cx="200" cy="200" r="180" fill="none" stroke="#7E22CE" stroke-width="8"/><path d="M127.80 133.88L127.80 133.88Q161.81 133.88 178.34 150.88Q194.88 167.89 194.88 199.62L194.88 199.62Q194.88 220.33 186.80 235.81Q178.72 251.30 163.33 259.85Q147.94 268.40 126.09 268.40L126.09 268.40Q123.24 268.40 118.49 268.21Q113.74 268.02 108.71 267.92Q103.67 267.83 99.49 267.83L99.49 267.83Q92.84 267.83 86.38 267.92Q79.92 268.02 75.93 268.40L75.93 268.40L75.93 264.60Q82.39 264.22 85.72 263.08Q89.04 261.94 90.18 258.52Q91.32 255.10 91.32 248.26L91.32 248.26L91.32 154.02Q91.32 146.99 90.18 143.66Q89.04 140.34 85.72 139.10Q82.39 137.87 75.93 137.68L75.93 137.68L75.93 133.88Q79.92 134.07 86.38 134.35Q92.84 134.64 99.11 134.45L99.11 134.45Q105.76 134.26 114.12 134.07Q122.48 133.88 127.80 133.88M123.05 137.30L123.05 137.30Q114.31 137.30 111.65 140.53Q108.99 143.76 108.99 153.64L108.99 153.64L108.99 248.64Q108.99 258.52 111.75 261.75Q114.50 264.98 123.24 264.98L123.24 264.98Q143.95 264.98 155.35 257.47Q166.75 249.97 171.31 235.53Q175.88 221.09 175.88 200.38L175.88 200.38Q175.88 179.10 170.84 165.13Q165.80 151.17 154.31 144.23Q142.81 137.30 123.05 137.30" fill="#16131F"/><path d="M271.81 131.22L271.81 131.22Q284.36 131.22 292.43 134.92Q300.50 138.63 306.77 143.57L306.77 143.57Q310.57 146.42 312.57 144.23Q314.56 142.05 315.32 133.88L315.32 133.88L319.69 133.88Q319.31 140.91 319.13 150.98Q318.94 161.05 318.94 177.58L318.94 177.58L314.56 177.58Q313.24 169.41 312.09 164.56Q310.95 159.72 309.34 156.30Q307.73 152.88 305.06 149.46L305.06 149.46Q299.17 141.67 290.25 138.15Q281.31 134.64 271.44 134.64L271.44 134.64Q262.13 134.64 254.62 139.29Q247.11 143.95 241.70 152.69Q236.28 161.43 233.34 173.78Q230.39 186.13 230.39 201.52L230.39 201.52Q230.39 217.48 233.63 229.73Q236.85 241.99 242.65 250.35Q248.44 258.71 256.33 262.98Q264.21 267.26 273.33 267.26L273.33 267.26Q281.88 267.26 291.19 263.84Q300.50 260.42 305.82 252.82L305.82 252.82Q310.00 247.31 311.62 240.85Q313.24 234.39 314.56 222.80L314.56 222.80L318.94 222.80Q318.94 240.09 319.13 250.63Q319.31 261.18 319.69 268.40L319.69 268.40L315.32 268.40Q314.56 260.23 312.76 258.14Q310.95 256.05 306.77 258.71L306.77 258.71Q299.75 263.65 291.86 267.35Q283.98 271.06 271.63 271.06L271.63 271.06Q253.57 271.06 239.99 262.89Q226.41 254.72 218.90 239.33Q211.39 223.94 211.39 202.28L211.39 202.28Q211.39 181.00 219.19 165.04Q226.97 149.08 240.56 140.15Q254.14 131.22 271.81 131.22" fill="#7E22CE"/></svg>
